<svg viewBox="0 0 1200 1600" xmlns="http://www.w3.org/2000/svg">
  <!-- Define styles -->
  <defs>
    <style>
      .phase-box { fill: #16213e; stroke: #00d4ff; stroke-width: 2; }
      .video-box { fill: #0f3460; stroke: #00d4ff; stroke-width: 2; }
      .insight-box { fill: #533483; stroke: #00d4ff; stroke-width: 2; }
      .action-box { fill: #00aa55; stroke: #00ff88; stroke-width: 2; }
      .header { fill: #1a1a2e; stroke: #00d4ff; stroke-width: 3; }
      .text-white { fill: white; font-family: Arial, sans-serif; font-size: 14px; text-anchor: middle; }
      .text-white-sm { fill: white; font-family: Arial, sans-serif; font-size: 12px; text-anchor: middle; }
      .text-title { fill: white; font-family: Arial, sans-serif; font-size: 18px; font-weight: bold; text-anchor: middle; }
      .text-week { fill: #00ff88; font-family: Arial, sans-serif; font-size: 13px; font-weight: bold; text-anchor: middle; }
      .arrow { stroke: #00d4ff; stroke-width: 2; fill: none; marker-end: url(#arrowhead); }
      .arrow-green { stroke: #00ff88; stroke-width: 2; fill: none; marker-end: url(#arrowhead-green); }
    </style>
    <marker id="arrowhead" markerWidth="10" markerHeight="10" refX="9" refY="3" orient="auto">
      <polygon points="0 0, 10 3, 0 6" fill="#00d4ff" />
    </marker>
    <marker id="arrowhead-green" markerWidth="10" markerHeight="10" refX="9" refY="3" orient="auto">
      <polygon points="0 0, 10 3, 0 6" fill="#00ff88" />
    </marker>
  </defs>

  <!-- START -->
  <rect class="header" x="350" y="20" width="500" height="80" rx="10"/>
  <text class="text-title" x="600" y="55">🚀 ALPHA AI LEARNING PATH</text>
  <text class="text-title" x="600" y="80">4 Weeks to Mastery</text>

  <!-- Arrow down -->
  <path class="arrow" d="M 600 100 L 600 140"/>

  <!-- PHASE 1 -->
  <rect class="phase-box" x="300" y="140" width="600" height="70" rx="10"/>
  <text class="text-title" x="600" y="165">🎯 PHASE 1: UNDERSTAND THE POWER</text>
  <text class="text-week" x="600" y="200">Week 1 | Foundation Building</text>

  <!-- Arrow down -->
  <path class="arrow" d="M 600 210 L 600 250"/>

  <!-- Video 1 & 2 -->
  <rect class="video-box" x="100" y="250" width="280" height="100" rx="8"/>
  <text class="text-white" x="240" y="275">📺 Grace Leung</text>
  <text class="text-white-sm" x="240" y="295">Perplexity + NotebookLM</text>
  <text class="text-white-sm" x="240" y="315">20 min</text>
  <text class="text-white-sm" x="240" y="330">START HERE</text>

  <rect class="video-box" x="420" y="250" width="280" height="100" rx="8"/>
  <text class="text-white" x="560" y="275">📺 Grace Leung</text>
  <text class="text-white-sm" x="560" y="295">Best Ways to Use</text>
  <text class="text-white-sm" x="560" y="315">NotebookLM</text>
  <text class="text-white-sm" x="560" y="330">15 min</text>

  <rect class="video-box" x="740" y="250" width="280" height="100" rx="8"/>
  <text class="text-white" x="880" y="280">💡 KEY INSIGHTS</text>
  <text class="text-white-sm" x="880" y="305">Perplexity = Research</text>
  <text class="text-white-sm" x="880" y="325">NotebookLM = Intelligence</text>
  <text class="text-white-sm" x="880" y="345">Direct Application</text>

  <!-- Arrows from videos -->
  <path class="arrow" d="M 240 350 L 600 390"/>
  <path class="arrow" d="M 560 350 L 600 390"/>
  <path class="arrow" d="M 880 350 L 600 390"/>

  <!-- PHASE 2 -->
  <rect class="phase-box" x="300" y="390" width="600" height="70" rx="10"/>
  <text class="text-title" x="600" y="415">🔗 PHASE 2: SEE THE FULL PICTURE</text>
  <text class="text-week" x="600" y="450">Week 1-2 | Workflow Mastery</text>

  <!-- Arrow down -->
  <path class="arrow" d="M 600 460 L 600 500"/>

  <!-- Video 3 - Game Changer -->
  <rect class="video-box" x="250" y="500" width="700" height="100" rx="8" stroke="#00ff88" stroke-width="3"/>
  <text class="text-title" x="600" y="530">🎬 Grace Leung: 8 AI Workflows</text>
  <text class="text-white-sm" x="600" y="550">The Game-Changer Video</text>
  <text class="text-white-sm" x="600" y="570">17 min | Watch TWICE &amp; Take Notes</text>
  <text class="text-white-sm" x="600" y="590">⭐ "You don't need more tools, you need better workflows"</text>

  <!-- Arrow down -->
  <path class="arrow-green" d="M 600 600 L 600 640"/>

  <!-- Action -->
  <rect class="action-box" x="300" y="640" width="600" height="100" rx="10"/>
  <text class="text-title" x="600" y="670">✅ YOUR ACTION ITEMS</text>
  <text class="text-white-sm" x="600" y="695">Identify YOUR Use Case</text>
  <text class="text-white-sm" x="600" y="715">Map Workflows to Your Business</text>
  <text class="text-white-sm" x="600" y="735">Note Which Apply to Your Role</text>

  <!-- Arrow down -->
  <path class="arrow" d="M 600 740 L 600 780"/>

  <!-- PHASE 3 -->
  <rect class="phase-box" x="300" y="780" width="600" height="70" rx="10"/>
  <text class="text-title" x="600" y="805">🎓 PHASE 3: MASTER PERPLEXITY</text>
  <text class="text-week" x="600" y="840">Week 2-3 | Deep Dive</text>

  <!-- Arrow down -->
  <path class="arrow" d="M 600 850 L 600 890"/>

  <!-- Video 4 -->
  <rect class="video-box" x="200" y="890" width="400" height="100" rx="8"/>
  <text class="text-white" x="400" y="920">📚 Tina Huang</text>
  <text class="text-white-sm" x="400" y="940">AI for Business Growth</text>
  <text class="text-white-sm" x="400" y="960">AI for Productivity Playlist</text>
  <text class="text-white-sm" x="400" y="980">&amp; Business AI Playlist</text>

  <rect class="insight-box" x="650" y="890" width="350" height="100" rx="8"/>
  <text class="text-white" x="825" y="920">🔍 BUILD THIS SKILL</text>
  <text class="text-white-sm" x="825" y="940">Asking AI Better Questions</text>
  <text class="text-white-sm" x="825" y="960">Competitive Research Techniques</text>
  <text class="text-white-sm" x="825" y="980">Market Analysis Prompts</text>

  <!-- Arrows from Phase 3 -->
  <path class="arrow" d="M 400 990 L 600 1030"/>
  <path class="arrow" d="M 825 990 L 600 1030"/>

  <!-- PHASE 4 -->
  <rect class="phase-box" x="300" y="1030" width="600" height="70" rx="10"/>
  <text class="text-title" x="600" y="1055">⚙️ PHASE 4: PUT IT TO WORK</text>
  <text class="text-week" x="600" y="1090">Week 3-4 | Automation &amp; Execution</text>

  <!-- Arrow down -->
  <path class="arrow" d="M 600 1100 L 600 1140"/>

  <!-- Video 5 -->
  <rect class="video-box" x="250" y="1140" width="700" height="100" rx="8"/>
  <text class="text-white" x="600" y="1170">🛠️ Enovair: AI for Business Automation</text>
  <text class="text-white-sm" x="600" y="1190">Learn to Automate Decisions &amp; Scale</text>
  <text class="text-white-sm" x="600" y="1210">From Research to Action</text>
  <text class="text-white-sm" x="600" y="1230">Free Up Time for Strategic Thinking</text>

  <!-- Arrow down -->
  <path class="arrow" d="M 600 1240 L 600 1280"/>

  <!-- ASSIGNMENT -->
  <rect class="action-box" x="200" y="1280" width="800" height="120" rx="10" stroke="#ff8c42" stroke-width="3"/>
  <text class="text-title" x="600" y="1310">🎬 YOUR ASSIGNMENT - WEEK 4</text>
  <text class="text-white-sm" x="600" y="1335">1️⃣ Pick ONE workflow from Phase 2</text>
  <text class="text-white-sm" x="600" y="1360">2️⃣ Run ONE experiment (30-60 min)</text>
  <text class="text-white-sm" x="600" y="1385">3️⃣ Message me what you discovered</text>

  <!-- Arrow down -->
  <path class="arrow-green" d="M 600 1400 L 600 1440"/>

  <!-- SUCCESS -->
  <rect class="action-box" x="200" y="1440" width="800" height="140" rx="10" stroke="#00ff88" stroke-width="3"/>
  <text class="text-title" x="600" y="1470">✨ YOU ARE NOW</text>
  <text class="text-white-sm" x="600" y="1495">A Strategist Who Thinks WITH AI</text>
  <text class="text-white-sm" x="600" y="1515">You Can Chain Tools Into Workflows</text>
  <text class="text-white-sm" x="600" y="1535">You Can Automate Your Pain Points</text>
  <text class="text-white-sm" x="600" y="1555">Operating at Next Level 📈🔥</text>

</svg>
